<svg width="1345" height="1663" viewBox="0 0 1345 1663" fill="none" xmlns="http://www.w3.org/2000/svg">
<path d="M112.017 205.741C91.5361 205.741 83.7674 196.866 80.1611 191.879M78.1361 165.635C78.0491 161.009 76.1503 156.602 72.848 153.361C69.5457 150.12 65.1036 148.305 60.4768 148.305C55.8499 148.305 51.4078 150.12 48.1055 153.361C44.8032 156.602 42.9044 161.009 42.8174 165.635M60.4736 258.154C71.1111 258.991 69.4861 286.854 55.8986 285.329C42.3111 283.804 44.6674 256.904 60.4736 258.154Z" stroke="#006CA9" stroke-width="5" stroke-linecap="round" stroke-linejoin="round"/>
<path d="M22.5479 83.5124C28.5034 77.5569 30.6977 70.0954 27.449 66.8467C24.2003 63.5981 16.7389 65.7924 10.7834 71.7479C4.82788 77.7034 2.63357 85.1648 5.88224 88.4135C9.13092 91.6622 16.5924 89.4679 22.5479 83.5124Z" stroke="#006CA9" stroke-width="5" stroke-linecap="round" stroke-linejoin="round"/>
<path d="M52.6299 102.269C44.9379 89.9754 36.5275 78.1465 27.4424 66.8438M41.6424 112.875C32.0799 102.269 5.87988 88.4125 5.87988 88.4125M112.017 205.744C132.505 205.744 140.267 196.869 143.874 191.881M145.899 165.637C145.986 161.011 147.884 156.604 151.187 153.364C154.489 150.123 158.931 148.307 163.558 148.307C168.185 148.307 172.627 150.123 175.929 153.364C179.232 156.604 181.13 161.011 181.217 165.637M112.017 299.75C143.874 299.75 147.474 289.487 147.474 282.837C147.474 276.187 140.542 253.9 112.017 253.9C83.4924 253.9 76.5611 276.181 76.5611 282.837C76.5611 289.494 80.1611 299.75 112.017 299.75ZM163.561 258.156C152.924 258.994 154.549 286.856 168.136 285.331C181.724 283.806 179.367 256.906 163.561 258.156Z" stroke="#006CA9" stroke-width="5" stroke-linecap="round" stroke-linejoin="round"/>
<path d="M218.161 88.4111C221.41 85.1624 219.216 77.7009 213.26 71.7454C207.305 65.7899 199.843 63.5956 196.595 66.8443C193.346 70.093 195.54 77.5544 201.496 83.5099C207.451 89.4654 214.913 91.6597 218.161 88.4111Z" stroke="#006CA9" stroke-width="5" stroke-linecap="round" stroke-linejoin="round"/>
<path d="M171.405 102.269C179.097 89.9754 187.508 78.1465 196.593 66.8438M182.393 112.875C191.955 102.269 218.162 88.4125 218.162 88.4125" stroke="#006CA9" stroke-width="5" stroke-linecap="round" stroke-linejoin="round"/>
<path d="M139.093 83.7937H139.255C143.091 81.4241 146.088 77.9115 147.824 73.75C138.831 73.7226 129.939 75.646 121.761 79.3875C128.736 72.0256 135.219 64.2129 141.168 56C141.168 56 102.349 65.7062 89.2239 82.4562H89.3239C35.4802 97.1875 4.36768 162.075 4.36768 199.919C4.36768 242.813 82.8677 253.9 112.018 253.9C141.168 253.9 219.668 242.813 219.668 199.919C219.668 163.113 190.236 100.75 139.093 83.7937Z" stroke="#006CA9" stroke-width="5" stroke-linecap="round" stroke-linejoin="round"/>
<path d="M1232.02 205.741C1211.54 205.741 1203.77 196.866 1200.16 191.879M1198.14 165.635C1198.05 161.009 1196.15 156.602 1192.85 153.361C1189.55 150.12 1185.1 148.305 1180.48 148.305C1175.85 148.305 1171.41 150.12 1168.11 153.361C1164.8 156.602 1162.9 161.009 1162.82 165.635M1180.47 258.154C1191.11 258.991 1189.49 286.854 1175.9 285.329C1162.31 283.804 1164.67 256.904 1180.47 258.154Z" stroke="#006CA9" stroke-width="5" stroke-linecap="round" stroke-linejoin="round"/>
<path d="M1142.55 83.5124C1148.5 77.5569 1150.7 70.0954 1147.45 66.8467C1144.2 63.5981 1136.74 65.7924 1130.78 71.7479C1124.83 77.7034 1122.63 85.1648 1125.88 88.4135C1129.13 91.6622 1136.59 89.4679 1142.55 83.5124Z" stroke="#006CA9" stroke-width="5" stroke-linecap="round" stroke-linejoin="round"/>
<path d="M1172.63 102.269C1164.94 89.9754 1156.53 78.1465 1147.44 66.8438M1161.64 112.875C1152.08 102.269 1125.88 88.4125 1125.88 88.4125M1232.02 205.744C1252.5 205.744 1260.27 196.869 1263.87 191.881M1265.9 165.637C1265.99 161.011 1267.88 156.604 1271.19 153.364C1274.49 150.123 1278.93 148.307 1283.56 148.307C1288.18 148.307 1292.63 150.123 1295.93 153.364C1299.23 156.604 1301.13 161.011 1301.22 165.637M1232.02 299.75C1263.87 299.75 1267.47 289.487 1267.47 282.837C1267.47 276.187 1260.54 253.9 1232.02 253.9C1203.49 253.9 1196.56 276.181 1196.56 282.837C1196.56 289.494 1200.16 299.75 1232.02 299.75ZM1283.56 258.156C1272.92 258.994 1274.55 286.856 1288.14 285.331C1301.72 283.806 1299.37 256.906 1283.56 258.156Z" stroke="#006CA9" stroke-width="5" stroke-linecap="round" stroke-linejoin="round"/>
<path d="M1338.16 88.4111C1341.41 85.1624 1339.22 77.7009 1333.26 71.7454C1327.3 65.7899 1319.84 63.5956 1316.59 66.8443C1313.35 70.093 1315.54 77.5544 1321.5 83.5099C1327.45 89.4654 1334.91 91.6597 1338.16 88.4111Z" stroke="#006CA9" stroke-width="5" stroke-linecap="round" stroke-linejoin="round"/>
<path d="M1291.41 102.269C1299.1 89.9754 1307.51 78.1465 1316.59 66.8438M1302.39 112.875C1311.96 102.269 1338.16 88.4125 1338.16 88.4125" stroke="#006CA9" stroke-width="5" stroke-linecap="round" stroke-linejoin="round"/>
<path d="M1259.09 83.7937H1259.26C1263.09 81.4241 1266.09 77.9115 1267.82 73.75C1258.83 73.7226 1249.94 75.646 1241.76 79.3875C1248.74 72.0256 1255.22 64.2129 1261.17 56C1261.17 56 1222.35 65.7062 1209.22 82.4562H1209.32C1155.48 97.1875 1124.37 162.075 1124.37 199.919C1124.37 242.813 1202.87 253.9 1232.02 253.9C1261.17 253.9 1339.67 242.813 1339.67 199.919C1339.67 163.113 1310.24 100.75 1259.09 83.7937Z" stroke="#006CA9" stroke-width="5" stroke-linecap="round" stroke-linejoin="round"/>
<path d="M1008.02 205.741C987.536 205.741 979.767 196.866 976.161 191.879M974.136 165.635C974.049 161.009 972.15 156.602 968.848 153.361C965.546 150.12 961.104 148.305 956.477 148.305C951.85 148.305 947.408 150.12 944.106 153.361C940.803 156.602 938.904 161.009 938.817 165.635M956.474 258.154C967.111 258.991 965.486 286.854 951.899 285.329C938.311 283.804 940.667 256.904 956.474 258.154Z" stroke="#FA8F00" stroke-width="5" stroke-linecap="round" stroke-linejoin="round"/>
<path d="M918.548 83.5124C924.503 77.5569 926.698 70.0954 923.449 66.8467C920.2 63.5981 912.739 65.7924 906.783 71.7479C900.828 77.7034 898.634 85.1648 901.882 88.4135C905.131 91.6622 912.592 89.4679 918.548 83.5124Z" stroke="#FA8F00" stroke-width="5" stroke-linecap="round" stroke-linejoin="round"/>
<path d="M948.63 102.269C940.938 89.9754 932.527 78.1465 923.442 66.8438M937.642 112.875C928.08 102.269 901.88 88.4125 901.88 88.4125M1008.02 205.744C1028.5 205.744 1036.27 196.869 1039.87 191.881M1041.9 165.637C1041.99 161.011 1043.88 156.604 1047.19 153.364C1050.49 150.123 1054.93 148.307 1059.56 148.307C1064.18 148.307 1068.63 150.123 1071.93 153.364C1075.23 156.604 1077.13 161.011 1077.22 165.637M1008.02 299.75C1039.87 299.75 1043.47 289.487 1043.47 282.837C1043.47 276.187 1036.54 253.9 1008.02 253.9C979.492 253.9 972.561 276.181 972.561 282.837C972.561 289.494 976.161 299.75 1008.02 299.75ZM1059.56 258.156C1048.92 258.994 1050.55 286.856 1064.14 285.331C1077.72 283.806 1075.37 256.906 1059.56 258.156Z" stroke="#FA8F00" stroke-width="5" stroke-linecap="round" stroke-linejoin="round"/>
<path d="M1114.16 88.4111C1117.41 85.1624 1115.22 77.7009 1109.26 71.7454C1103.3 65.7899 1095.84 63.5956 1092.59 66.8443C1089.35 70.093 1091.54 77.5544 1097.5 83.5099C1103.45 89.4654 1110.91 91.6597 1114.16 88.4111Z" stroke="#FA8F00" stroke-width="5" stroke-linecap="round" stroke-linejoin="round"/>
<path d="M1067.41 102.269C1075.1 89.9754 1083.51 78.1465 1092.59 66.8438M1078.39 112.875C1087.96 102.269 1114.16 88.4125 1114.16 88.4125" stroke="#FA8F00" stroke-width="5" stroke-linecap="round" stroke-linejoin="round"/>
<path d="M1035.09 83.7937H1035.26C1039.09 81.4241 1042.09 77.9115 1043.82 73.75C1034.83 73.7226 1025.94 75.646 1017.76 79.3875C1024.74 72.0256 1031.22 64.2129 1037.17 56C1037.17 56 998.349 65.7062 985.224 82.4562H985.324C931.48 97.1875 900.368 162.075 900.368 199.919C900.368 242.813 978.868 253.9 1008.02 253.9C1037.17 253.9 1115.67 242.813 1115.67 199.919C1115.67 163.113 1086.24 100.75 1035.09 83.7937Z" stroke="#FA8F00" stroke-width="5" stroke-linecap="round" stroke-linejoin="round"/>
<path d="M560.017 205.741C539.536 205.741 531.767 196.866 528.161 191.879M526.136 165.635C526.049 161.009 524.15 156.602 520.848 153.361C517.546 150.12 513.104 148.305 508.477 148.305C503.85 148.305 499.408 150.12 496.106 153.361C492.803 156.602 490.904 161.009 490.817 165.635M508.474 258.154C519.111 258.991 517.486 286.854 503.899 285.329C490.311 283.804 492.667 256.904 508.474 258.154Z" stroke="#006CA9" stroke-width="5" stroke-linecap="round" stroke-linejoin="round"/>
<path d="M470.548 83.5124C476.503 77.5569 478.698 70.0954 475.449 66.8467C472.2 63.5981 464.739 65.7924 458.783 71.7479C452.828 77.7034 450.634 85.1648 453.882 88.4135C457.131 91.6622 464.592 89.4679 470.548 83.5124Z" stroke="#006CA9" stroke-width="5" stroke-linecap="round" stroke-linejoin="round"/>
<path d="M500.63 102.269C492.938 89.9754 484.527 78.1465 475.442 66.8438M489.642 112.875C480.08 102.269 453.88 88.4125 453.88 88.4125M560.017 205.744C580.505 205.744 588.267 196.869 591.874 191.881M593.899 165.637C593.986 161.011 595.884 156.604 599.187 153.364C602.489 150.123 606.931 148.307 611.558 148.307C616.185 148.307 620.627 150.123 623.929 153.364C627.232 156.604 629.13 161.011 629.217 165.637M560.017 299.75C591.874 299.75 595.474 289.487 595.474 282.837C595.474 276.187 588.542 253.9 560.017 253.9C531.492 253.9 524.561 276.181 524.561 282.837C524.561 289.494 528.161 299.75 560.017 299.75ZM611.561 258.156C600.924 258.994 602.549 286.856 616.136 285.331C629.724 283.806 627.367 256.906 611.561 258.156Z" stroke="#006CA9" stroke-width="5" stroke-linecap="round" stroke-linejoin="round"/>
<path d="M666.161 88.4111C669.41 85.1624 667.216 77.7009 661.26 71.7454C655.305 65.7899 647.843 63.5956 644.595 66.8443C641.346 70.093 643.54 77.5544 649.496 83.5099C655.451 89.4654 662.913 91.6597 666.161 88.4111Z" stroke="#006CA9" stroke-width="5" stroke-linecap="round" stroke-linejoin="round"/>
<path d="M619.405 102.269C627.097 89.9754 635.508 78.1465 644.593 66.8438M630.393 112.875C639.955 102.269 666.162 88.4125 666.162 88.4125" stroke="#006CA9" stroke-width="5" stroke-linecap="round" stroke-linejoin="round"/>
<path d="M587.093 83.7937H587.255C591.091 81.4241 594.088 77.9115 595.824 73.75C586.831 73.7226 577.939 75.646 569.761 79.3875C576.736 72.0256 583.219 64.2129 589.168 56C589.168 56 550.349 65.7062 537.224 82.4562H537.324C483.48 97.1875 452.368 162.075 452.368 199.919C452.368 242.813 530.868 253.9 560.018 253.9C589.168 253.9 667.668 242.813 667.668 199.919C667.668 163.113 638.236 100.75 587.093 83.7937Z" stroke="#006CA9" stroke-width="5" stroke-linecap="round" stroke-linejoin="round"/>
<path d="M784.017 205.741C763.536 205.741 755.767 196.866 752.161 191.879M750.136 165.635C750.049 161.009 748.15 156.602 744.848 153.361C741.546 150.12 737.104 148.305 732.477 148.305C727.85 148.305 723.408 150.12 720.106 153.361C716.803 156.602 714.904 161.009 714.817 165.635M732.474 258.154C743.111 258.991 741.486 286.854 727.899 285.329C714.311 283.804 716.667 256.904 732.474 258.154Z" stroke="#006CA9" stroke-width="5" stroke-linecap="round" stroke-linejoin="round"/>
<path d="M694.548 83.5124C700.503 77.5569 702.698 70.0954 699.449 66.8467C696.2 63.5981 688.739 65.7924 682.783 71.7479C676.828 77.7034 674.634 85.1648 677.882 88.4135C681.131 91.6622 688.592 89.4679 694.548 83.5124Z" stroke="#006CA9" stroke-width="5" stroke-linecap="round" stroke-linejoin="round"/>
<path d="M724.63 102.269C716.938 89.9754 708.527 78.1465 699.442 66.8438M713.642 112.875C704.08 102.269 677.88 88.4125 677.88 88.4125M784.017 205.744C804.505 205.744 812.267 196.869 815.874 191.881M817.899 165.637C817.986 161.011 819.884 156.604 823.187 153.364C826.489 150.123 830.931 148.307 835.558 148.307C840.185 148.307 844.627 150.123 847.929 153.364C851.232 156.604 853.13 161.011 853.217 165.637M784.017 299.75C815.874 299.75 819.474 289.487 819.474 282.837C819.474 276.187 812.542 253.9 784.017 253.9C755.492 253.9 748.561 276.181 748.561 282.837C748.561 289.494 752.161 299.75 784.017 299.75ZM835.561 258.156C824.924 258.994 826.549 286.856 840.136 285.331C853.724 283.806 851.367 256.906 835.561 258.156Z" stroke="#006CA9" stroke-width="5" stroke-linecap="round" stroke-linejoin="round"/>
<path d="M890.161 88.4111C893.41 85.1624 891.216 77.7009 885.26 71.7454C879.305 65.7899 871.843 63.5956 868.595 66.8443C865.346 70.093 867.54 77.5544 873.496 83.5099C879.451 89.4654 886.913 91.6597 890.161 88.4111Z" stroke="#006CA9" stroke-width="5" stroke-linecap="round" stroke-linejoin="round"/>
<path d="M843.405 102.269C851.097 89.9754 859.508 78.1465 868.593 66.8438M854.393 112.875C863.955 102.269 890.162 88.4125 890.162 88.4125" stroke="#006CA9" stroke-width="5" stroke-linecap="round" stroke-linejoin="round"/>
<path d="M811.093 83.7937H811.255C815.091 81.4241 818.088 77.9115 819.824 73.75C810.831 73.7226 801.939 75.646 793.761 79.3875C800.736 72.0256 807.219 64.2129 813.168 56C813.168 56 774.349 65.7062 761.224 82.4562H761.324C707.48 97.1875 676.368 162.075 676.368 199.919C676.368 242.813 754.868 253.9 784.018 253.9C813.168 253.9 891.668 242.813 891.668 199.919C891.668 163.113 862.236 100.75 811.093 83.7937Z" stroke="#006CA9" stroke-width="5" stroke-linecap="round" stroke-linejoin="round"/>
<path d="M336.017 205.741C315.536 205.741 307.767 196.866 304.161 191.879M302.136 165.635C302.049 161.009 300.15 156.602 296.848 153.361C293.546 150.12 289.104 148.305 284.477 148.305C279.85 148.305 275.408 150.12 272.106 153.361C268.803 156.602 266.904 161.009 266.817 165.635M284.474 258.154C295.111 258.991 293.486 286.854 279.899 285.329C266.311 283.804 268.667 256.904 284.474 258.154Z" stroke="#FA8F00" stroke-width="5" stroke-linecap="round" stroke-linejoin="round"/>
<path d="M246.548 83.5124C252.503 77.5569 254.698 70.0954 251.449 66.8467C248.2 63.5981 240.739 65.7924 234.783 71.7479C228.828 77.7034 226.634 85.1648 229.882 88.4135C233.131 91.6622 240.592 89.4679 246.548 83.5124Z" stroke="#FA8F00" stroke-width="5" stroke-linecap="round" stroke-linejoin="round"/>
<path d="M276.63 102.269C268.938 89.9754 260.527 78.1465 251.442 66.8438M265.642 112.875C256.08 102.269 229.88 88.4125 229.88 88.4125M336.017 205.744C356.505 205.744 364.267 196.869 367.874 191.881M369.899 165.637C369.986 161.011 371.884 156.604 375.187 153.364C378.489 150.123 382.931 148.307 387.558 148.307C392.185 148.307 396.627 150.123 399.929 153.364C403.232 156.604 405.13 161.011 405.217 165.637M336.017 299.75C367.874 299.75 371.474 289.487 371.474 282.837C371.474 276.187 364.542 253.9 336.017 253.9C307.492 253.9 300.561 276.181 300.561 282.837C300.561 289.494 304.161 299.75 336.017 299.75ZM387.561 258.156C376.924 258.994 378.549 286.856 392.136 285.331C405.724 283.806 403.367 256.906 387.561 258.156Z" stroke="#FA8F00" stroke-width="5" stroke-linecap="round" stroke-linejoin="round"/>
<path d="M442.161 88.4111C445.41 85.1624 443.216 77.7009 437.26 71.7454C431.305 65.7899 423.843 63.5956 420.595 66.8443C417.346 70.093 419.54 77.5544 425.496 83.5099C431.451 89.4654 438.913 91.6597 442.161 88.4111Z" stroke="#FA8F00" stroke-width="5" stroke-linecap="round" stroke-linejoin="round"/>
<path d="M395.405 102.269C403.097 89.9754 411.508 78.1465 420.593 66.8438M406.393 112.875C415.955 102.269 442.162 88.4125 442.162 88.4125" stroke="#FA8F00" stroke-width="5" stroke-linecap="round" stroke-linejoin="round"/>
<path d="M363.093 83.7937H363.255C367.091 81.4241 370.088 77.9115 371.824 73.75C362.831 73.7226 353.939 75.646 345.761 79.3875C352.736 72.0256 359.219 64.2129 365.168 56C365.168 56 326.349 65.7062 313.224 82.4562H313.324C259.48 97.1875 228.368 162.075 228.368 199.919C228.368 242.813 306.868 253.9 336.018 253.9C365.168 253.9 443.668 242.813 443.668 199.919C443.668 163.113 414.236 100.75 363.093 83.7937Z" stroke="#FA8F00" stroke-width="5" stroke-linecap="round" stroke-linejoin="round"/>
<path d="M112.017 585.741C91.5361 585.741 83.7674 576.866 80.1611 571.879M78.1361 545.635C78.0491 541.009 76.1503 536.602 72.848 533.361C69.5457 530.12 65.1036 528.305 60.4768 528.305C55.8499 528.305 51.4078 530.12 48.1055 533.361C44.8032 536.602 42.9044 541.009 42.8174 545.635M60.4736 638.154C71.1111 638.991 69.4861 666.854 55.8986 665.329C42.3111 663.804 44.6674 636.904 60.4736 638.154Z" stroke="#FA8F00" stroke-width="5" stroke-linecap="round" stroke-linejoin="round"/>
<path d="M22.5479 463.512C28.5034 457.557 30.6977 450.095 27.449 446.847C24.2003 443.598 16.7389 445.792 10.7834 451.748C4.82788 457.703 2.63357 465.165 5.88224 468.413C9.13092 471.662 16.5924 469.468 22.5479 463.512Z" stroke="#FA8F00" stroke-width="5" stroke-linecap="round" stroke-linejoin="round"/>
<path d="M52.6299 482.269C44.9379 469.975 36.5275 458.147 27.4424 446.844M41.6424 492.875C32.0799 482.269 5.87988 468.412 5.87988 468.412M112.017 585.744C132.505 585.744 140.267 576.869 143.874 571.881M145.899 545.637C145.986 541.011 147.884 536.604 151.187 533.364C154.489 530.123 158.931 528.307 163.558 528.307C168.185 528.307 172.627 530.123 175.929 533.364C179.232 536.604 181.13 541.011 181.217 545.637M112.017 679.75C143.874 679.75 147.474 669.487 147.474 662.837C147.474 656.187 140.542 633.9 112.017 633.9C83.4924 633.9 76.5611 656.181 76.5611 662.837C76.5611 669.494 80.1611 679.75 112.017 679.75ZM163.561 638.156C152.924 638.994 154.549 666.856 168.136 665.331C181.724 663.806 179.367 636.906 163.561 638.156Z" stroke="#FA8F00" stroke-width="5" stroke-linecap="round" stroke-linejoin="round"/>
<path d="M218.161 468.411C221.41 465.162 219.216 457.701 213.26 451.745C207.305 445.79 199.843 443.596 196.595 446.844C193.346 450.093 195.54 457.554 201.496 463.51C207.451 469.465 214.913 471.66 218.161 468.411Z" stroke="#FA8F00" stroke-width="5" stroke-linecap="round" stroke-linejoin="round"/>
<path d="M171.405 482.269C179.097 469.975 187.508 458.147 196.593 446.844M182.393 492.875C191.955 482.269 218.162 468.412 218.162 468.412" stroke="#FA8F00" stroke-width="5" stroke-linecap="round" stroke-linejoin="round"/>
<path d="M139.093 463.794H139.255C143.091 461.424 146.088 457.911 147.824 453.75C138.831 453.723 129.939 455.646 121.761 459.387C128.736 452.026 135.219 444.213 141.168 436C141.168 436 102.349 445.706 89.2239 462.456H89.3239C35.4802 477.187 4.36768 542.075 4.36768 579.919C4.36768 622.813 82.8677 633.9 112.018 633.9C141.168 633.9 219.668 622.813 219.668 579.919C219.668 543.113 190.236 480.75 139.093 463.794Z" stroke="#FA8F00" stroke-width="5" stroke-linecap="round" stroke-linejoin="round"/>
<path d="M1232.02 585.741C1211.54 585.741 1203.77 576.866 1200.16 571.879M1198.14 545.635C1198.05 541.009 1196.15 536.602 1192.85 533.361C1189.55 530.12 1185.1 528.305 1180.48 528.305C1175.85 528.305 1171.41 530.12 1168.11 533.361C1164.8 536.602 1162.9 541.009 1162.82 545.635M1180.47 638.154C1191.11 638.991 1189.49 666.854 1175.9 665.329C1162.31 663.804 1164.67 636.904 1180.47 638.154Z" stroke="#006CA9" stroke-width="5" stroke-linecap="round" stroke-linejoin="round"/>
<path d="M1142.55 463.512C1148.5 457.557 1150.7 450.095 1147.45 446.847C1144.2 443.598 1136.74 445.792 1130.78 451.748C1124.83 457.703 1122.63 465.165 1125.88 468.413C1129.13 471.662 1136.59 469.468 1142.55 463.512Z" stroke="#006CA9" stroke-width="5" stroke-linecap="round" stroke-linejoin="round"/>
<path d="M1172.63 482.269C1164.94 469.975 1156.53 458.147 1147.44 446.844M1161.64 492.875C1152.08 482.269 1125.88 468.412 1125.88 468.412M1232.02 585.744C1252.5 585.744 1260.27 576.869 1263.87 571.881M1265.9 545.637C1265.99 541.011 1267.88 536.604 1271.19 533.364C1274.49 530.123 1278.93 528.307 1283.56 528.307C1288.18 528.307 1292.63 530.123 1295.93 533.364C1299.23 536.604 1301.13 541.011 1301.22 545.637M1232.02 679.75C1263.87 679.75 1267.47 669.487 1267.47 662.837C1267.47 656.187 1260.54 633.9 1232.02 633.9C1203.49 633.9 1196.56 656.181 1196.56 662.837C1196.56 669.494 1200.16 679.75 1232.02 679.75ZM1283.56 638.156C1272.92 638.994 1274.55 666.856 1288.14 665.331C1301.72 663.806 1299.37 636.906 1283.56 638.156Z" stroke="#006CA9" stroke-width="5" stroke-linecap="round" stroke-linejoin="round"/>
<path d="M1338.16 468.411C1341.41 465.162 1339.22 457.701 1333.26 451.745C1327.3 445.79 1319.84 443.596 1316.59 446.844C1313.35 450.093 1315.54 457.554 1321.5 463.51C1327.45 469.465 1334.91 471.66 1338.16 468.411Z" stroke="#006CA9" stroke-width="5" stroke-linecap="round" stroke-linejoin="round"/>
<path d="M1291.41 482.269C1299.1 469.975 1307.51 458.147 1316.59 446.844M1302.39 492.875C1311.96 482.269 1338.16 468.412 1338.16 468.412" stroke="#006CA9" stroke-width="5" stroke-linecap="round" stroke-linejoin="round"/>
<path d="M1259.09 463.794H1259.26C1263.09 461.424 1266.09 457.911 1267.82 453.75C1258.83 453.723 1249.94 455.646 1241.76 459.387C1248.74 452.026 1255.22 444.213 1261.17 436C1261.17 436 1222.35 445.706 1209.22 462.456H1209.32C1155.48 477.187 1124.37 542.075 1124.37 579.919C1124.37 622.813 1202.87 633.9 1232.02 633.9C1261.17 633.9 1339.67 622.813 1339.67 579.919C1339.67 543.113 1310.24 480.75 1259.09 463.794Z" stroke="#006CA9" stroke-width="5" stroke-linecap="round" stroke-linejoin="round"/>
<path d="M1008.02 585.741C987.536 585.741 979.767 576.866 976.161 571.879M974.136 545.635C974.049 541.009 972.15 536.602 968.848 533.361C965.546 530.12 961.104 528.305 956.477 528.305C951.85 528.305 947.408 530.12 944.106 533.361C940.803 536.602 938.904 541.009 938.817 545.635M956.474 638.154C967.111 638.991 965.486 666.854 951.899 665.329C938.311 663.804 940.667 636.904 956.474 638.154Z" stroke="#006CA9" stroke-width="5" stroke-linecap="round" stroke-linejoin="round"/>
<path d="M918.548 463.512C924.503 457.557 926.698 450.095 923.449 446.847C920.2 443.598 912.739 445.792 906.783 451.748C900.828 457.703 898.634 465.165 901.882 468.413C905.131 471.662 912.592 469.468 918.548 463.512Z" stroke="#006CA9" stroke-width="5" stroke-linecap="round" stroke-linejoin="round"/>
<path d="M948.63 482.269C940.938 469.975 932.527 458.147 923.442 446.844M937.642 492.875C928.08 482.269 901.88 468.412 901.88 468.412M1008.02 585.744C1028.5 585.744 1036.27 576.869 1039.87 571.881M1041.9 545.637C1041.99 541.011 1043.88 536.604 1047.19 533.364C1050.49 530.123 1054.93 528.307 1059.56 528.307C1064.18 528.307 1068.63 530.123 1071.93 533.364C1075.23 536.604 1077.13 541.011 1077.22 545.637M1008.02 679.75C1039.87 679.75 1043.47 669.487 1043.47 662.837C1043.47 656.187 1036.54 633.9 1008.02 633.9C979.492 633.9 972.561 656.181 972.561 662.837C972.561 669.494 976.161 679.75 1008.02 679.75ZM1059.56 638.156C1048.92 638.994 1050.55 666.856 1064.14 665.331C1077.72 663.806 1075.37 636.906 1059.56 638.156Z" stroke="#006CA9" stroke-width="5" stroke-linecap="round" stroke-linejoin="round"/>
<path d="M1114.16 468.411C1117.41 465.162 1115.22 457.701 1109.26 451.745C1103.3 445.79 1095.84 443.596 1092.59 446.844C1089.35 450.093 1091.54 457.554 1097.5 463.51C1103.45 469.465 1110.91 471.66 1114.16 468.411Z" stroke="#006CA9" stroke-width="5" stroke-linecap="round" stroke-linejoin="round"/>
<path d="M1067.41 482.269C1075.1 469.975 1083.51 458.147 1092.59 446.844M1078.39 492.875C1087.96 482.269 1114.16 468.412 1114.16 468.412" stroke="#006CA9" stroke-width="5" stroke-linecap="round" stroke-linejoin="round"/>
<path d="M1035.09 463.794H1035.26C1039.09 461.424 1042.09 457.911 1043.82 453.75C1034.83 453.723 1025.94 455.646 1017.76 459.387C1024.74 452.026 1031.22 444.213 1037.17 436C1037.17 436 998.349 445.706 985.224 462.456H985.324C931.48 477.187 900.368 542.075 900.368 579.919C900.368 622.813 978.868 633.9 1008.02 633.9C1037.17 633.9 1115.67 622.813 1115.67 579.919C1115.67 543.113 1086.24 480.75 1035.09 463.794Z" stroke="#006CA9" stroke-width="5" stroke-linecap="round" stroke-linejoin="round"/>
<path d="M560.017 585.741C539.536 585.741 531.767 576.866 528.161 571.879M526.136 545.635C526.049 541.009 524.15 536.602 520.848 533.361C517.546 530.12 513.104 528.305 508.477 528.305C503.85 528.305 499.408 530.12 496.106 533.361C492.803 536.602 490.904 541.009 490.817 545.635M508.474 638.154C519.111 638.991 517.486 666.854 503.899 665.329C490.311 663.804 492.667 636.904 508.474 638.154Z" stroke="#FA8F00" stroke-width="5" stroke-linecap="round" stroke-linejoin="round"/>
<path d="M470.548 463.512C476.503 457.557 478.698 450.095 475.449 446.847C472.2 443.598 464.739 445.792 458.783 451.748C452.828 457.703 450.634 465.165 453.882 468.413C457.131 471.662 464.592 469.468 470.548 463.512Z" stroke="#FA8F00" stroke-width="5" stroke-linecap="round" stroke-linejoin="round"/>
<path d="M500.63 482.269C492.938 469.975 484.527 458.147 475.442 446.844M489.642 492.875C480.08 482.269 453.88 468.412 453.88 468.412M560.017 585.744C580.505 585.744 588.267 576.869 591.874 571.881M593.899 545.637C593.986 541.011 595.884 536.604 599.187 533.364C602.489 530.123 606.931 528.307 611.558 528.307C616.185 528.307 620.627 530.123 623.929 533.364C627.232 536.604 629.13 541.011 629.217 545.637M560.017 679.75C591.874 679.75 595.474 669.487 595.474 662.837C595.474 656.187 588.542 633.9 560.017 633.9C531.492 633.9 524.561 656.181 524.561 662.837C524.561 669.494 528.161 679.75 560.017 679.75ZM611.561 638.156C600.924 638.994 602.549 666.856 616.136 665.331C629.724 663.806 627.367 636.906 611.561 638.156Z" stroke="#FA8F00" stroke-width="5" stroke-linecap="round" stroke-linejoin="round"/>
<path d="M666.161 468.411C669.41 465.162 667.216 457.701 661.26 451.745C655.305 445.79 647.843 443.596 644.595 446.844C641.346 450.093 643.54 457.554 649.496 463.51C655.451 469.465 662.913 471.66 666.161 468.411Z" stroke="#FA8F00" stroke-width="5" stroke-linecap="round" stroke-linejoin="round"/>
<path d="M619.405 482.269C627.097 469.975 635.508 458.147 644.593 446.844M630.393 492.875C639.955 482.269 666.162 468.412 666.162 468.412" stroke="#FA8F00" stroke-width="5" stroke-linecap="round" stroke-linejoin="round"/>
<path d="M587.093 463.794H587.255C591.091 461.424 594.088 457.911 595.824 453.75C586.831 453.723 577.939 455.646 569.761 459.387C576.736 452.026 583.219 444.213 589.168 436C589.168 436 550.349 445.706 537.224 462.456H537.324C483.48 477.187 452.368 542.075 452.368 579.919C452.368 622.813 530.868 633.9 560.018 633.9C589.168 633.9 667.668 622.813 667.668 579.919C667.668 543.113 638.236 480.75 587.093 463.794Z" stroke="#FA8F00" stroke-width="5" stroke-linecap="round" stroke-linejoin="round"/>
<path d="M784.017 585.741C763.536 585.741 755.767 576.866 752.161 571.879M750.136 545.635C750.049 541.009 748.15 536.602 744.848 533.361C741.546 530.12 737.104 528.305 732.477 528.305C727.85 528.305 723.408 530.12 720.106 533.361C716.803 536.602 714.904 541.009 714.817 545.635M732.474 638.154C743.111 638.991 741.486 666.854 727.899 665.329C714.311 663.804 716.667 636.904 732.474 638.154Z" stroke="#006CA9" stroke-width="5" stroke-linecap="round" stroke-linejoin="round"/>
<path d="M694.548 463.512C700.503 457.557 702.698 450.095 699.449 446.847C696.2 443.598 688.739 445.792 682.783 451.748C676.828 457.703 674.634 465.165 677.882 468.413C681.131 471.662 688.592 469.468 694.548 463.512Z" stroke="#006CA9" stroke-width="5" stroke-linecap="round" stroke-linejoin="round"/>
<path d="M724.63 482.269C716.938 469.975 708.527 458.147 699.442 446.844M713.642 492.875C704.08 482.269 677.88 468.412 677.88 468.412M784.017 585.744C804.505 585.744 812.267 576.869 815.874 571.881M817.899 545.637C817.986 541.011 819.884 536.604 823.187 533.364C826.489 530.123 830.931 528.307 835.558 528.307C840.185 528.307 844.627 530.123 847.929 533.364C851.232 536.604 853.13 541.011 853.217 545.637M784.017 679.75C815.874 679.75 819.474 669.487 819.474 662.837C819.474 656.187 812.542 633.9 784.017 633.9C755.492 633.9 748.561 656.181 748.561 662.837C748.561 669.494 752.161 679.75 784.017 679.75ZM835.561 638.156C824.924 638.994 826.549 666.856 840.136 665.331C853.724 663.806 851.367 636.906 835.561 638.156Z" stroke="#006CA9" stroke-width="5" stroke-linecap="round" stroke-linejoin="round"/>
<path d="M890.161 468.411C893.41 465.162 891.216 457.701 885.26 451.745C879.305 445.79 871.843 443.596 868.595 446.844C865.346 450.093 867.54 457.554 873.496 463.51C879.451 469.465 886.913 471.66 890.161 468.411Z" stroke="#006CA9" stroke-width="5" stroke-linecap="round" stroke-linejoin="round"/>
<path d="M843.405 482.269C851.097 469.975 859.508 458.147 868.593 446.844M854.393 492.875C863.955 482.269 890.162 468.412 890.162 468.412" stroke="#006CA9" stroke-width="5" stroke-linecap="round" stroke-linejoin="round"/>
<path d="M811.093 463.794H811.255C815.091 461.424 818.088 457.911 819.824 453.75C810.831 453.723 801.939 455.646 793.761 459.387C800.736 452.026 807.219 444.213 813.168 436C813.168 436 774.349 445.706 761.224 462.456H761.324C707.48 477.187 676.368 542.075 676.368 579.919C676.368 622.813 754.868 633.9 784.018 633.9C813.168 633.9 891.668 622.813 891.668 579.919C891.668 543.113 862.236 480.75 811.093 463.794Z" stroke="#006CA9" stroke-width="5" stroke-linecap="round" stroke-linejoin="round"/>
<path d="M336.017 585.741C315.536 585.741 307.767 576.866 304.161 571.879M302.136 545.635C302.049 541.009 300.15 536.602 296.848 533.361C293.546 530.12 289.104 528.305 284.477 528.305C279.85 528.305 275.408 530.12 272.106 533.361C268.803 536.602 266.904 541.009 266.817 545.635M284.474 638.154C295.111 638.991 293.486 666.854 279.899 665.329C266.311 663.804 268.667 636.904 284.474 638.154Z" stroke="#006CA9" stroke-width="5" stroke-linecap="round" stroke-linejoin="round"/>
<path d="M246.548 463.512C252.503 457.557 254.698 450.095 251.449 446.847C248.2 443.598 240.739 445.792 234.783 451.748C228.828 457.703 226.634 465.165 229.882 468.413C233.131 471.662 240.592 469.468 246.548 463.512Z" stroke="#006CA9" stroke-width="5" stroke-linecap="round" stroke-linejoin="round"/>
<path d="M276.63 482.269C268.938 469.975 260.527 458.147 251.442 446.844M265.642 492.875C256.08 482.269 229.88 468.412 229.88 468.412M336.017 585.744C356.505 585.744 364.267 576.869 367.874 571.881M369.899 545.637C369.986 541.011 371.884 536.604 375.187 533.364C378.489 530.123 382.931 528.307 387.558 528.307C392.185 528.307 396.627 530.123 399.929 533.364C403.232 536.604 405.13 541.011 405.217 545.637M336.017 679.75C367.874 679.75 371.474 669.487 371.474 662.837C371.474 656.187 364.542 633.9 336.017 633.9C307.492 633.9 300.561 656.181 300.561 662.837C300.561 669.494 304.161 679.75 336.017 679.75ZM387.561 638.156C376.924 638.994 378.549 666.856 392.136 665.331C405.724 663.806 403.367 636.906 387.561 638.156Z" stroke="#006CA9" stroke-width="5" stroke-linecap="round" stroke-linejoin="round"/>
<path d="M442.161 468.411C445.41 465.162 443.216 457.701 437.26 451.745C431.305 445.79 423.843 443.596 420.595 446.844C417.346 450.093 419.54 457.554 425.496 463.51C431.451 469.465 438.913 471.66 442.161 468.411Z" stroke="#006CA9" stroke-width="5" stroke-linecap="round" stroke-linejoin="round"/>
<path d="M395.405 482.269C403.097 469.975 411.508 458.147 420.593 446.844M406.393 492.875C415.955 482.269 442.162 468.412 442.162 468.412" stroke="#006CA9" stroke-width="5" stroke-linecap="round" stroke-linejoin="round"/>
<path d="M363.093 463.794H363.255C367.091 461.424 370.088 457.911 371.824 453.75C362.831 453.723 353.939 455.646 345.761 459.387C352.736 452.026 359.219 444.213 365.168 436C365.168 436 326.349 445.706 313.224 462.456H313.324C259.48 477.187 228.368 542.075 228.368 579.919C228.368 622.813 306.868 633.9 336.018 633.9C365.168 633.9 443.668 622.813 443.668 579.919C443.668 543.113 414.236 480.75 363.093 463.794Z" stroke="#006CA9" stroke-width="5" stroke-linecap="round" stroke-linejoin="round"/>
<path d="M269.375 402.5C257.813 392.5 242.813 386.25 226.25 386.25C197.188 386.25 172.625 405.188 164 431.375L178.75 436.25C182.04 426.249 188.403 417.542 196.932 411.369C205.462 405.197 215.722 401.874 226.25 401.875C238.438 401.875 249.563 406.375 258.25 413.625L235.625 436.25H291.875V380L269.375 402.5Z" fill="#737370"/>
<path d="M182.5 713.75C194.062 723.75 209.062 730 225.625 730C254.687 730 279.25 711.062 287.875 684.875L273.125 680C269.835 690.001 263.472 698.708 254.943 704.881C246.413 711.053 236.153 714.376 225.625 714.375C213.437 714.375 202.312 709.875 193.625 702.625L216.25 680H160V736.25L182.5 713.75Z" fill="#737370"/>
<path d="M854.5 333.75C866.062 343.75 881.062 350 897.625 350C926.687 350 951.25 331.062 959.875 304.875L945.125 300C941.835 310.001 935.472 318.708 926.943 324.881C918.413 331.053 908.153 334.376 897.625 334.375C885.437 334.375 874.312 329.875 865.625 322.625L888.25 300H832V356.25L854.5 333.75Z" fill="#737370"/>
<path d="M630.5 713.75C642.062 723.75 657.062 730 673.625 730C702.687 730 727.25 711.062 735.875 684.875L721.125 680C717.835 690.001 711.472 698.708 702.943 704.881C694.413 711.053 684.153 714.376 673.625 714.375C661.437 714.375 650.312 709.875 641.625 702.625L664.25 680H608V736.25L630.5 713.75Z" fill="#737370"/>
<path d="M937.375 22.5C925.813 12.5 910.813 6.25 894.25 6.25C865.188 6.25 840.625 25.1875 832 51.375L846.75 56.25C850.04 46.2489 856.403 37.5416 864.932 31.3692C873.462 25.1967 883.722 21.8741 894.25 21.875C906.438 21.875 917.563 26.375 926.25 33.625L903.625 56.25H959.875V0L937.375 22.5Z" fill="#737370"/>
<path d="M719.375 413.5C707.813 403.5 692.813 397.25 676.25 397.25C647.188 397.25 622.625 416.188 614 442.375L628.75 447.25C632.04 437.249 638.403 428.542 646.932 422.369C655.462 416.197 665.722 412.874 676.25 412.875C688.438 412.875 699.563 417.375 708.25 424.625L685.625 447.25H741.875V391L719.375 413.5Z" fill="#737370"/>
<path d="M112.017 1185.74C91.5361 1185.74 83.7674 1176.87 80.1611 1171.88M78.1361 1145.63C78.0491 1141.01 76.1503 1136.6 72.848 1133.36C69.5457 1130.12 65.1036 1128.3 60.4768 1128.3C55.8499 1128.3 51.4078 1130.12 48.1055 1133.36C44.8032 1136.6 42.9044 1141.01 42.8174 1145.63M60.4736 1238.15C71.1111 1238.99 69.4861 1266.85 55.8986 1265.33C42.3111 1263.8 44.6674 1236.9 60.4736 1238.15Z" stroke="#006CA9" stroke-width="5" stroke-linecap="round" stroke-linejoin="round"/>
<path d="M22.5479 1063.51C28.5034 1057.56 30.6977 1050.1 27.449 1046.85C24.2003 1043.6 16.7389 1045.79 10.7834 1051.75C4.82788 1057.7 2.63357 1065.16 5.88224 1068.41C9.13092 1071.66 16.5924 1069.47 22.5479 1063.51Z" stroke="#006CA9" stroke-width="5" stroke-linecap="round" stroke-linejoin="round"/>
<path d="M52.6299 1082.27C44.9379 1069.98 36.5275 1058.15 27.4424 1046.84M41.6424 1092.88C32.0799 1082.27 5.87988 1068.41 5.87988 1068.41M112.017 1185.74C132.505 1185.74 140.267 1176.87 143.874 1171.88M145.899 1145.64C145.986 1141.01 147.884 1136.6 151.187 1133.36C154.489 1130.12 158.931 1128.31 163.558 1128.31C168.185 1128.31 172.627 1130.12 175.929 1133.36C179.232 1136.6 181.13 1141.01 181.217 1145.64M112.017 1279.75C143.874 1279.75 147.474 1269.49 147.474 1262.84C147.474 1256.19 140.542 1233.9 112.017 1233.9C83.4924 1233.9 76.5611 1256.18 76.5611 1262.84C76.5611 1269.49 80.1611 1279.75 112.017 1279.75ZM163.561 1238.16C152.924 1238.99 154.549 1266.86 168.136 1265.33C181.724 1263.81 179.367 1236.91 163.561 1238.16Z" stroke="#006CA9" stroke-width="5" stroke-linecap="round" stroke-linejoin="round"/>
<path d="M218.161 1068.41C221.41 1065.16 219.216 1057.7 213.26 1051.75C207.305 1045.79 199.843 1043.6 196.595 1046.84C193.346 1050.09 195.54 1057.55 201.496 1063.51C207.451 1069.47 214.913 1071.66 218.161 1068.41Z" stroke="#006CA9" stroke-width="5" stroke-linecap="round" stroke-linejoin="round"/>
<path d="M171.405 1082.27C179.097 1069.98 187.508 1058.15 196.593 1046.84M182.393 1092.88C191.955 1082.27 218.162 1068.41 218.162 1068.41" stroke="#006CA9" stroke-width="5" stroke-linecap="round" stroke-linejoin="round"/>
<path d="M139.093 1063.79H139.255C143.091 1061.42 146.088 1057.91 147.824 1053.75C138.831 1053.72 129.939 1055.65 121.761 1059.39C128.736 1052.03 135.219 1044.21 141.168 1036C141.168 1036 102.349 1045.71 89.2239 1062.46H89.3239C35.4802 1077.19 4.36768 1142.08 4.36768 1179.92C4.36768 1222.81 82.8677 1233.9 112.018 1233.9C141.168 1233.9 219.668 1222.81 219.668 1179.92C219.668 1143.11 190.236 1080.75 139.093 1063.79Z" stroke="#006CA9" stroke-width="5" stroke-linecap="round" stroke-linejoin="round"/>
<path d="M1232.02 1185.74C1211.54 1185.74 1203.77 1176.87 1200.16 1171.88M1198.14 1145.63C1198.05 1141.01 1196.15 1136.6 1192.85 1133.36C1189.55 1130.12 1185.1 1128.3 1180.48 1128.3C1175.85 1128.3 1171.41 1130.12 1168.11 1133.36C1164.8 1136.6 1162.9 1141.01 1162.82 1145.63M1180.47 1238.15C1191.11 1238.99 1189.49 1266.85 1175.9 1265.33C1162.31 1263.8 1164.67 1236.9 1180.47 1238.15Z" stroke="#006CA9" stroke-width="5" stroke-linecap="round" stroke-linejoin="round"/>
<path d="M1142.55 1063.51C1148.5 1057.56 1150.7 1050.1 1147.45 1046.85C1144.2 1043.6 1136.74 1045.79 1130.78 1051.75C1124.83 1057.7 1122.63 1065.16 1125.88 1068.41C1129.13 1071.66 1136.59 1069.47 1142.55 1063.51Z" stroke="#006CA9" stroke-width="5" stroke-linecap="round" stroke-linejoin="round"/>
<path d="M1172.63 1082.27C1164.94 1069.98 1156.53 1058.15 1147.44 1046.84M1161.64 1092.88C1152.08 1082.27 1125.88 1068.41 1125.88 1068.41M1232.02 1185.74C1252.5 1185.74 1260.27 1176.87 1263.87 1171.88M1265.9 1145.64C1265.99 1141.01 1267.88 1136.6 1271.19 1133.36C1274.49 1130.12 1278.93 1128.31 1283.56 1128.31C1288.18 1128.31 1292.63 1130.12 1295.93 1133.36C1299.23 1136.6 1301.13 1141.01 1301.22 1145.64M1232.02 1279.75C1263.87 1279.75 1267.47 1269.49 1267.47 1262.84C1267.47 1256.19 1260.54 1233.9 1232.02 1233.9C1203.49 1233.9 1196.56 1256.18 1196.56 1262.84C1196.56 1269.49 1200.16 1279.75 1232.02 1279.75ZM1283.56 1238.16C1272.92 1238.99 1274.55 1266.86 1288.14 1265.33C1301.72 1263.81 1299.37 1236.91 1283.56 1238.16Z" stroke="#006CA9" stroke-width="5" stroke-linecap="round" stroke-linejoin="round"/>
<path d="M1338.16 1068.41C1341.41 1065.16 1339.22 1057.7 1333.26 1051.75C1327.3 1045.79 1319.84 1043.6 1316.59 1046.84C1313.35 1050.09 1315.54 1057.55 1321.5 1063.51C1327.45 1069.47 1334.91 1071.66 1338.16 1068.41Z" stroke="#006CA9" stroke-width="5" stroke-linecap="round" stroke-linejoin="round"/>
<path d="M1291.41 1082.27C1299.1 1069.98 1307.51 1058.15 1316.59 1046.84M1302.39 1092.88C1311.96 1082.27 1338.16 1068.41 1338.16 1068.41" stroke="#006CA9" stroke-width="5" stroke-linecap="round" stroke-linejoin="round"/>
<path d="M1259.09 1063.79H1259.26C1263.09 1061.42 1266.09 1057.91 1267.82 1053.75C1258.83 1053.72 1249.94 1055.65 1241.76 1059.39C1248.74 1052.03 1255.22 1044.21 1261.17 1036C1261.17 1036 1222.35 1045.71 1209.22 1062.46H1209.32C1155.48 1077.19 1124.37 1142.08 1124.37 1179.92C1124.37 1222.81 1202.87 1233.9 1232.02 1233.9C1261.17 1233.9 1339.67 1222.81 1339.67 1179.92C1339.67 1143.11 1310.24 1080.75 1259.09 1063.79Z" stroke="#006CA9" stroke-width="5" stroke-linecap="round" stroke-linejoin="round"/>
<path d="M1008.02 1185.74C987.536 1185.74 979.767 1176.87 976.161 1171.88M974.136 1145.63C974.049 1141.01 972.15 1136.6 968.848 1133.36C965.546 1130.12 961.104 1128.3 956.477 1128.3C951.85 1128.3 947.408 1130.12 944.106 1133.36C940.803 1136.6 938.904 1141.01 938.817 1145.63M956.474 1238.15C967.111 1238.99 965.486 1266.85 951.899 1265.33C938.311 1263.8 940.667 1236.9 956.474 1238.15Z" stroke="#006CA9" stroke-width="5" stroke-linecap="round" stroke-linejoin="round"/>
<path d="M918.548 1063.51C924.503 1057.56 926.698 1050.1 923.449 1046.85C920.2 1043.6 912.739 1045.79 906.783 1051.75C900.828 1057.7 898.634 1065.16 901.882 1068.41C905.131 1071.66 912.592 1069.47 918.548 1063.51Z" stroke="#006CA9" stroke-width="5" stroke-linecap="round" stroke-linejoin="round"/>
<path d="M948.63 1082.27C940.938 1069.98 932.527 1058.15 923.442 1046.84M937.642 1092.88C928.08 1082.27 901.88 1068.41 901.88 1068.41M1008.02 1185.74C1028.5 1185.74 1036.27 1176.87 1039.87 1171.88M1041.9 1145.64C1041.99 1141.01 1043.88 1136.6 1047.19 1133.36C1050.49 1130.12 1054.93 1128.31 1059.56 1128.31C1064.18 1128.31 1068.63 1130.12 1071.93 1133.36C1075.23 1136.6 1077.13 1141.01 1077.22 1145.64M1008.02 1279.75C1039.87 1279.75 1043.47 1269.49 1043.47 1262.84C1043.47 1256.19 1036.54 1233.9 1008.02 1233.9C979.492 1233.9 972.561 1256.18 972.561 1262.84C972.561 1269.49 976.161 1279.75 1008.02 1279.75ZM1059.56 1238.16C1048.92 1238.99 1050.55 1266.86 1064.14 1265.33C1077.72 1263.81 1075.37 1236.91 1059.56 1238.16Z" stroke="#006CA9" stroke-width="5" stroke-linecap="round" stroke-linejoin="round"/>
<path d="M1114.16 1068.41C1117.41 1065.16 1115.22 1057.7 1109.26 1051.75C1103.3 1045.79 1095.84 1043.6 1092.59 1046.84C1089.35 1050.09 1091.54 1057.55 1097.5 1063.51C1103.45 1069.47 1110.91 1071.66 1114.16 1068.41Z" stroke="#006CA9" stroke-width="5" stroke-linecap="round" stroke-linejoin="round"/>
<path d="M1067.41 1082.27C1075.1 1069.98 1083.51 1058.15 1092.59 1046.84M1078.39 1092.88C1087.96 1082.27 1114.16 1068.41 1114.16 1068.41" stroke="#006CA9" stroke-width="5" stroke-linecap="round" stroke-linejoin="round"/>
<path d="M1035.09 1063.79H1035.26C1039.09 1061.42 1042.09 1057.91 1043.82 1053.75C1034.83 1053.72 1025.94 1055.65 1017.76 1059.39C1024.74 1052.03 1031.22 1044.21 1037.17 1036C1037.17 1036 998.349 1045.71 985.224 1062.46H985.324C931.48 1077.19 900.368 1142.08 900.368 1179.92C900.368 1222.81 978.868 1233.9 1008.02 1233.9C1037.17 1233.9 1115.67 1222.81 1115.67 1179.92C1115.67 1143.11 1086.24 1080.75 1035.09 1063.79Z" stroke="#006CA9" stroke-width="5" stroke-linecap="round" stroke-linejoin="round"/>
<path d="M560.017 1185.74C539.536 1185.74 531.767 1176.87 528.161 1171.88M526.136 1145.63C526.049 1141.01 524.15 1136.6 520.848 1133.36C517.546 1130.12 513.104 1128.3 508.477 1128.3C503.85 1128.3 499.408 1130.12 496.106 1133.36C492.803 1136.6 490.904 1141.01 490.817 1145.63M508.474 1238.15C519.111 1238.99 517.486 1266.85 503.899 1265.33C490.311 1263.8 492.667 1236.9 508.474 1238.15Z" stroke="#006CA9" stroke-width="5" stroke-linecap="round" stroke-linejoin="round"/>
<path d="M470.548 1063.51C476.503 1057.56 478.698 1050.1 475.449 1046.85C472.2 1043.6 464.739 1045.79 458.783 1051.75C452.828 1057.7 450.634 1065.16 453.882 1068.41C457.131 1071.66 464.592 1069.47 470.548 1063.51Z" stroke="#006CA9" stroke-width="5" stroke-linecap="round" stroke-linejoin="round"/>
<path d="M500.63 1082.27C492.938 1069.98 484.527 1058.15 475.442 1046.84M489.642 1092.88C480.08 1082.27 453.88 1068.41 453.88 1068.41M560.017 1185.74C580.505 1185.74 588.267 1176.87 591.874 1171.88M593.899 1145.64C593.986 1141.01 595.884 1136.6 599.187 1133.36C602.489 1130.12 606.931 1128.31 611.558 1128.31C616.185 1128.31 620.627 1130.12 623.929 1133.36C627.232 1136.6 629.13 1141.01 629.217 1145.64M560.017 1279.75C591.874 1279.75 595.474 1269.49 595.474 1262.84C595.474 1256.19 588.542 1233.9 560.017 1233.9C531.492 1233.9 524.561 1256.18 524.561 1262.84C524.561 1269.49 528.161 1279.75 560.017 1279.75ZM611.561 1238.16C600.924 1238.99 602.549 1266.86 616.136 1265.33C629.724 1263.81 627.367 1236.91 611.561 1238.16Z" stroke="#006CA9" stroke-width="5" stroke-linecap="round" stroke-linejoin="round"/>
<path d="M666.161 1068.41C669.41 1065.16 667.216 1057.7 661.26 1051.75C655.305 1045.79 647.843 1043.6 644.595 1046.84C641.346 1050.09 643.54 1057.55 649.496 1063.51C655.451 1069.47 662.913 1071.66 666.161 1068.41Z" stroke="#006CA9" stroke-width="5" stroke-linecap="round" stroke-linejoin="round"/>
<path d="M619.405 1082.27C627.097 1069.98 635.508 1058.15 644.593 1046.84M630.393 1092.88C639.955 1082.27 666.162 1068.41 666.162 1068.41" stroke="#006CA9" stroke-width="5" stroke-linecap="round" stroke-linejoin="round"/>
<path d="M587.093 1063.79H587.255C591.091 1061.42 594.088 1057.91 595.824 1053.75C586.831 1053.72 577.939 1055.65 569.761 1059.39C576.736 1052.03 583.219 1044.21 589.168 1036C589.168 1036 550.349 1045.71 537.224 1062.46H537.324C483.48 1077.19 452.368 1142.08 452.368 1179.92C452.368 1222.81 530.868 1233.9 560.018 1233.9C589.168 1233.9 667.668 1222.81 667.668 1179.92C667.668 1143.11 638.236 1080.75 587.093 1063.79Z" stroke="#006CA9" stroke-width="5" stroke-linecap="round" stroke-linejoin="round"/>
<path d="M784.017 1185.74C763.536 1185.74 755.767 1176.87 752.161 1171.88M750.136 1145.63C750.049 1141.01 748.15 1136.6 744.848 1133.36C741.546 1130.12 737.104 1128.3 732.477 1128.3C727.85 1128.3 723.408 1130.12 720.106 1133.36C716.803 1136.6 714.904 1141.01 714.817 1145.63M732.474 1238.15C743.111 1238.99 741.486 1266.85 727.899 1265.33C714.311 1263.8 716.667 1236.9 732.474 1238.15Z" stroke="#FA8F00" stroke-width="5" stroke-linecap="round" stroke-linejoin="round"/>
<path d="M694.548 1063.51C700.503 1057.56 702.698 1050.1 699.449 1046.85C696.2 1043.6 688.739 1045.79 682.783 1051.75C676.828 1057.7 674.634 1065.16 677.882 1068.41C681.131 1071.66 688.592 1069.47 694.548 1063.51Z" stroke="#FA8F00" stroke-width="5" stroke-linecap="round" stroke-linejoin="round"/>
<path d="M724.63 1082.27C716.938 1069.98 708.527 1058.15 699.442 1046.84M713.642 1092.88C704.08 1082.27 677.88 1068.41 677.88 1068.41M784.017 1185.74C804.505 1185.74 812.267 1176.87 815.874 1171.88M817.899 1145.64C817.986 1141.01 819.884 1136.6 823.187 1133.36C826.489 1130.12 830.931 1128.31 835.558 1128.31C840.185 1128.31 844.627 1130.12 847.929 1133.36C851.232 1136.6 853.13 1141.01 853.217 1145.64M784.017 1279.75C815.874 1279.75 819.474 1269.49 819.474 1262.84C819.474 1256.19 812.542 1233.9 784.017 1233.9C755.492 1233.9 748.561 1256.18 748.561 1262.84C748.561 1269.49 752.161 1279.75 784.017 1279.75ZM835.561 1238.16C824.924 1238.99 826.549 1266.86 840.136 1265.33C853.724 1263.81 851.367 1236.91 835.561 1238.16Z" stroke="#FA8F00" stroke-width="5" stroke-linecap="round" stroke-linejoin="round"/>
<path d="M890.161 1068.41C893.41 1065.16 891.216 1057.7 885.26 1051.75C879.305 1045.79 871.843 1043.6 868.595 1046.84C865.346 1050.09 867.54 1057.55 873.496 1063.51C879.451 1069.47 886.913 1071.66 890.161 1068.41Z" stroke="#FA8F00" stroke-width="5" stroke-linecap="round" stroke-linejoin="round"/>
<path d="M843.405 1082.27C851.097 1069.98 859.508 1058.15 868.593 1046.84M854.393 1092.88C863.955 1082.27 890.162 1068.41 890.162 1068.41" stroke="#FA8F00" stroke-width="5" stroke-linecap="round" stroke-linejoin="round"/>
<path d="M811.093 1063.79H811.255C815.091 1061.42 818.088 1057.91 819.824 1053.75C810.831 1053.72 801.939 1055.65 793.761 1059.39C800.736 1052.03 807.219 1044.21 813.168 1036C813.168 1036 774.349 1045.71 761.224 1062.46H761.324C707.48 1077.19 676.368 1142.08 676.368 1179.92C676.368 1222.81 754.868 1233.9 784.018 1233.9C813.168 1233.9 891.668 1222.81 891.668 1179.92C891.668 1143.11 862.236 1080.75 811.093 1063.79Z" stroke="#FA8F00" stroke-width="5" stroke-linecap="round" stroke-linejoin="round"/>
<path d="M336.017 1185.74C315.536 1185.74 307.767 1176.87 304.161 1171.88M302.136 1145.63C302.049 1141.01 300.15 1136.6 296.848 1133.36C293.546 1130.12 289.104 1128.3 284.477 1128.3C279.85 1128.3 275.408 1130.12 272.106 1133.36C268.803 1136.6 266.904 1141.01 266.817 1145.63M284.474 1238.15C295.111 1238.99 293.486 1266.85 279.899 1265.33C266.311 1263.8 268.667 1236.9 284.474 1238.15Z" stroke="#FA8F00" stroke-width="5" stroke-linecap="round" stroke-linejoin="round"/>
<path d="M246.548 1063.51C252.503 1057.56 254.698 1050.1 251.449 1046.85C248.2 1043.6 240.739 1045.79 234.783 1051.75C228.828 1057.7 226.634 1065.16 229.882 1068.41C233.131 1071.66 240.592 1069.47 246.548 1063.51Z" stroke="#FA8F00" stroke-width="5" stroke-linecap="round" stroke-linejoin="round"/>
<path d="M276.63 1082.27C268.938 1069.98 260.527 1058.15 251.442 1046.84M265.642 1092.88C256.08 1082.27 229.88 1068.41 229.88 1068.41M336.017 1185.74C356.505 1185.74 364.267 1176.87 367.874 1171.88M369.899 1145.64C369.986 1141.01 371.884 1136.6 375.187 1133.36C378.489 1130.12 382.931 1128.31 387.558 1128.31C392.185 1128.31 396.627 1130.12 399.929 1133.36C403.232 1136.6 405.13 1141.01 405.217 1145.64M336.017 1279.75C367.874 1279.75 371.474 1269.49 371.474 1262.84C371.474 1256.19 364.542 1233.9 336.017 1233.9C307.492 1233.9 300.561 1256.18 300.561 1262.84C300.561 1269.49 304.161 1279.75 336.017 1279.75ZM387.561 1238.16C376.924 1238.99 378.549 1266.86 392.136 1265.33C405.724 1263.81 403.367 1236.91 387.561 1238.16Z" stroke="#FA8F00" stroke-width="5" stroke-linecap="round" stroke-linejoin="round"/>
<path d="M442.161 1068.41C445.41 1065.16 443.216 1057.7 437.26 1051.75C431.305 1045.79 423.843 1043.6 420.595 1046.84C417.346 1050.09 419.54 1057.55 425.496 1063.51C431.451 1069.47 438.913 1071.66 442.161 1068.41Z" stroke="#FA8F00" stroke-width="5" stroke-linecap="round" stroke-linejoin="round"/>
<path d="M395.405 1082.27C403.097 1069.98 411.508 1058.15 420.593 1046.84M406.393 1092.88C415.955 1082.27 442.162 1068.41 442.162 1068.41" stroke="#FA8F00" stroke-width="5" stroke-linecap="round" stroke-linejoin="round"/>
<path d="M363.093 1063.79H363.255C367.091 1061.42 370.088 1057.91 371.824 1053.75C362.831 1053.72 353.939 1055.65 345.761 1059.39C352.736 1052.03 359.219 1044.21 365.168 1036C365.168 1036 326.349 1045.71 313.224 1062.46H313.324C259.48 1077.19 228.368 1142.08 228.368 1179.92C228.368 1222.81 306.868 1233.9 336.018 1233.9C365.168 1233.9 443.668 1222.81 443.668 1179.92C443.668 1143.11 414.236 1080.75 363.093 1063.79Z" stroke="#FA8F00" stroke-width="5" stroke-linecap="round" stroke-linejoin="round"/>
<path d="M112.017 1565.74C91.5361 1565.74 83.7674 1556.87 80.1611 1551.88M78.1361 1525.63C78.0491 1521.01 76.1503 1516.6 72.848 1513.36C69.5457 1510.12 65.1036 1508.3 60.4768 1508.3C55.8499 1508.3 51.4078 1510.12 48.1055 1513.36C44.8032 1516.6 42.9044 1521.01 42.8174 1525.63M60.4736 1618.15C71.1111 1618.99 69.4861 1646.85 55.8986 1645.33C42.3111 1643.8 44.6674 1616.9 60.4736 1618.15Z" stroke="#006CA9" stroke-width="5" stroke-linecap="round" stroke-linejoin="round"/>
<path d="M22.5479 1443.51C28.5034 1437.56 30.6977 1430.1 27.449 1426.85C24.2003 1423.6 16.7389 1425.79 10.7834 1431.75C4.82788 1437.7 2.63357 1445.16 5.88224 1448.41C9.13092 1451.66 16.5924 1449.47 22.5479 1443.51Z" stroke="#006CA9" stroke-width="5" stroke-linecap="round" stroke-linejoin="round"/>
<path d="M52.6299 1462.27C44.9379 1449.98 36.5275 1438.15 27.4424 1426.84M41.6424 1472.88C32.0799 1462.27 5.87988 1448.41 5.87988 1448.41M112.017 1565.74C132.505 1565.74 140.267 1556.87 143.874 1551.88M145.899 1525.64C145.986 1521.01 147.884 1516.6 151.187 1513.36C154.489 1510.12 158.931 1508.31 163.558 1508.31C168.185 1508.31 172.627 1510.12 175.929 1513.36C179.232 1516.6 181.13 1521.01 181.217 1525.64M112.017 1659.75C143.874 1659.75 147.474 1649.49 147.474 1642.84C147.474 1636.19 140.542 1613.9 112.017 1613.9C83.4924 1613.9 76.5611 1636.18 76.5611 1642.84C76.5611 1649.49 80.1611 1659.75 112.017 1659.75ZM163.561 1618.16C152.924 1618.99 154.549 1646.86 168.136 1645.33C181.724 1643.81 179.367 1616.91 163.561 1618.16Z" stroke="#006CA9" stroke-width="5" stroke-linecap="round" stroke-linejoin="round"/>
<path d="M218.161 1448.41C221.41 1445.16 219.216 1437.7 213.26 1431.75C207.305 1425.79 199.843 1423.6 196.595 1426.84C193.346 1430.09 195.54 1437.55 201.496 1443.51C207.451 1449.47 214.913 1451.66 218.161 1448.41Z" stroke="#006CA9" stroke-width="5" stroke-linecap="round" stroke-linejoin="round"/>
<path d="M171.405 1462.27C179.097 1449.98 187.508 1438.15 196.593 1426.84M182.393 1472.88C191.955 1462.27 218.162 1448.41 218.162 1448.41" stroke="#006CA9" stroke-width="5" stroke-linecap="round" stroke-linejoin="round"/>
<path d="M139.093 1443.79H139.255C143.091 1441.42 146.088 1437.91 147.824 1433.75C138.831 1433.72 129.939 1435.65 121.761 1439.39C128.736 1432.03 135.219 1424.21 141.168 1416C141.168 1416 102.349 1425.71 89.2239 1442.46H89.3239C35.4802 1457.19 4.36768 1522.08 4.36768 1559.92C4.36768 1602.81 82.8677 1613.9 112.018 1613.9C141.168 1613.9 219.668 1602.81 219.668 1559.92C219.668 1523.11 190.236 1460.75 139.093 1443.79Z" stroke="#006CA9" stroke-width="5" stroke-linecap="round" stroke-linejoin="round"/>
<path d="M1232.02 1565.74C1211.54 1565.74 1203.77 1556.87 1200.16 1551.88M1198.14 1525.63C1198.05 1521.01 1196.15 1516.6 1192.85 1513.36C1189.55 1510.12 1185.1 1508.3 1180.48 1508.3C1175.85 1508.3 1171.41 1510.12 1168.11 1513.36C1164.8 1516.6 1162.9 1521.01 1162.82 1525.63M1180.47 1618.15C1191.11 1618.99 1189.49 1646.85 1175.9 1645.33C1162.31 1643.8 1164.67 1616.9 1180.47 1618.15Z" stroke="#006CA9" stroke-width="5" stroke-linecap="round" stroke-linejoin="round"/>
<path d="M1142.55 1443.51C1148.5 1437.56 1150.7 1430.1 1147.45 1426.85C1144.2 1423.6 1136.74 1425.79 1130.78 1431.75C1124.83 1437.7 1122.63 1445.16 1125.88 1448.41C1129.13 1451.66 1136.59 1449.47 1142.55 1443.51Z" stroke="#006CA9" stroke-width="5" stroke-linecap="round" stroke-linejoin="round"/>
<path d="M1172.63 1462.27C1164.94 1449.98 1156.53 1438.15 1147.44 1426.84M1161.64 1472.88C1152.08 1462.27 1125.88 1448.41 1125.88 1448.41M1232.02 1565.74C1252.5 1565.74 1260.27 1556.87 1263.87 1551.88M1265.9 1525.64C1265.99 1521.01 1267.88 1516.6 1271.19 1513.36C1274.49 1510.12 1278.93 1508.31 1283.56 1508.31C1288.18 1508.31 1292.63 1510.12 1295.93 1513.36C1299.23 1516.6 1301.13 1521.01 1301.22 1525.64M1232.02 1659.75C1263.87 1659.75 1267.47 1649.49 1267.47 1642.84C1267.47 1636.19 1260.54 1613.9 1232.02 1613.9C1203.49 1613.9 1196.56 1636.18 1196.56 1642.84C1196.56 1649.49 1200.16 1659.75 1232.02 1659.75ZM1283.56 1618.16C1272.92 1618.99 1274.55 1646.86 1288.14 1645.33C1301.72 1643.81 1299.37 1616.91 1283.56 1618.16Z" stroke="#006CA9" stroke-width="5" stroke-linecap="round" stroke-linejoin="round"/>
<path d="M1338.16 1448.41C1341.41 1445.16 1339.22 1437.7 1333.26 1431.75C1327.3 1425.79 1319.84 1423.6 1316.59 1426.84C1313.35 1430.09 1315.54 1437.55 1321.5 1443.51C1327.45 1449.47 1334.91 1451.66 1338.16 1448.41Z" stroke="#006CA9" stroke-width="5" stroke-linecap="round" stroke-linejoin="round"/>
<path d="M1291.41 1462.27C1299.1 1449.98 1307.51 1438.15 1316.59 1426.84M1302.39 1472.88C1311.96 1462.27 1338.16 1448.41 1338.16 1448.41" stroke="#006CA9" stroke-width="5" stroke-linecap="round" stroke-linejoin="round"/>
<path d="M1259.09 1443.79H1259.26C1263.09 1441.42 1266.09 1437.91 1267.82 1433.75C1258.83 1433.72 1249.94 1435.65 1241.76 1439.39C1248.74 1432.03 1255.22 1424.21 1261.17 1416C1261.17 1416 1222.35 1425.71 1209.22 1442.46H1209.32C1155.48 1457.19 1124.37 1522.08 1124.37 1559.92C1124.37 1602.81 1202.87 1613.9 1232.02 1613.9C1261.17 1613.9 1339.67 1602.81 1339.67 1559.92C1339.67 1523.11 1310.24 1460.75 1259.09 1443.79Z" stroke="#006CA9" stroke-width="5" stroke-linecap="round" stroke-linejoin="round"/>
<path d="M1008.02 1565.74C987.536 1565.74 979.767 1556.87 976.161 1551.88M974.136 1525.63C974.049 1521.01 972.15 1516.6 968.848 1513.36C965.546 1510.12 961.104 1508.3 956.477 1508.3C951.85 1508.3 947.408 1510.12 944.106 1513.36C940.803 1516.6 938.904 1521.01 938.817 1525.63M956.474 1618.15C967.111 1618.99 965.486 1646.85 951.899 1645.33C938.311 1643.8 940.667 1616.9 956.474 1618.15Z" stroke="#006CA9" stroke-width="5" stroke-linecap="round" stroke-linejoin="round"/>
<path d="M918.548 1443.51C924.503 1437.56 926.698 1430.1 923.449 1426.85C920.2 1423.6 912.739 1425.79 906.783 1431.75C900.828 1437.7 898.634 1445.16 901.882 1448.41C905.131 1451.66 912.592 1449.47 918.548 1443.51Z" stroke="#006CA9" stroke-width="5" stroke-linecap="round" stroke-linejoin="round"/>
<path d="M948.63 1462.27C940.938 1449.98 932.527 1438.15 923.442 1426.84M937.642 1472.88C928.08 1462.27 901.88 1448.41 901.88 1448.41M1008.02 1565.74C1028.5 1565.74 1036.27 1556.87 1039.87 1551.88M1041.9 1525.64C1041.99 1521.01 1043.88 1516.6 1047.19 1513.36C1050.49 1510.12 1054.93 1508.31 1059.56 1508.31C1064.18 1508.31 1068.63 1510.12 1071.93 1513.36C1075.23 1516.6 1077.13 1521.01 1077.22 1525.64M1008.02 1659.75C1039.87 1659.75 1043.47 1649.49 1043.47 1642.84C1043.47 1636.19 1036.54 1613.9 1008.02 1613.9C979.492 1613.9 972.561 1636.18 972.561 1642.84C972.561 1649.49 976.161 1659.75 1008.02 1659.75ZM1059.56 1618.16C1048.92 1618.99 1050.55 1646.86 1064.14 1645.33C1077.72 1643.81 1075.37 1616.91 1059.56 1618.16Z" stroke="#006CA9" stroke-width="5" stroke-linecap="round" stroke-linejoin="round"/>
<path d="M1114.16 1448.41C1117.41 1445.16 1115.22 1437.7 1109.26 1431.75C1103.3 1425.79 1095.84 1423.6 1092.59 1426.84C1089.35 1430.09 1091.54 1437.55 1097.5 1443.51C1103.45 1449.47 1110.91 1451.66 1114.16 1448.41Z" stroke="#006CA9" stroke-width="5" stroke-linecap="round" stroke-linejoin="round"/>
<path d="M1067.41 1462.27C1075.1 1449.98 1083.51 1438.15 1092.59 1426.84M1078.39 1472.88C1087.96 1462.27 1114.16 1448.41 1114.16 1448.41" stroke="#006CA9" stroke-width="5" stroke-linecap="round" stroke-linejoin="round"/>
<path d="M1035.09 1443.79H1035.26C1039.09 1441.42 1042.09 1437.91 1043.82 1433.75C1034.83 1433.72 1025.94 1435.65 1017.76 1439.39C1024.74 1432.03 1031.22 1424.21 1037.17 1416C1037.17 1416 998.349 1425.71 985.224 1442.46H985.324C931.48 1457.19 900.368 1522.08 900.368 1559.92C900.368 1602.81 978.868 1613.9 1008.02 1613.9C1037.17 1613.9 1115.67 1602.81 1115.67 1559.92C1115.67 1523.11 1086.24 1460.75 1035.09 1443.79Z" stroke="#006CA9" stroke-width="5" stroke-linecap="round" stroke-linejoin="round"/>
<path d="M560.017 1565.74C539.536 1565.74 531.767 1556.87 528.161 1551.88M526.136 1525.63C526.049 1521.01 524.15 1516.6 520.848 1513.36C517.546 1510.12 513.104 1508.3 508.477 1508.3C503.85 1508.3 499.408 1510.12 496.106 1513.36C492.803 1516.6 490.904 1521.01 490.817 1525.63M508.474 1618.15C519.111 1618.99 517.486 1646.85 503.899 1645.33C490.311 1643.8 492.667 1616.9 508.474 1618.15Z" stroke="#006CA9" stroke-width="5" stroke-linecap="round" stroke-linejoin="round"/>
<path d="M470.548 1443.51C476.503 1437.56 478.698 1430.1 475.449 1426.85C472.2 1423.6 464.739 1425.79 458.783 1431.75C452.828 1437.7 450.634 1445.16 453.882 1448.41C457.131 1451.66 464.592 1449.47 470.548 1443.51Z" stroke="#006CA9" stroke-width="5" stroke-linecap="round" stroke-linejoin="round"/>
<path d="M500.63 1462.27C492.938 1449.98 484.527 1438.15 475.442 1426.84M489.642 1472.88C480.08 1462.27 453.88 1448.41 453.88 1448.41M560.017 1565.74C580.505 1565.74 588.267 1556.87 591.874 1551.88M593.899 1525.64C593.986 1521.01 595.884 1516.6 599.187 1513.36C602.489 1510.12 606.931 1508.31 611.558 1508.31C616.185 1508.31 620.627 1510.12 623.929 1513.36C627.232 1516.6 629.13 1521.01 629.217 1525.64M560.017 1659.75C591.874 1659.75 595.474 1649.49 595.474 1642.84C595.474 1636.19 588.542 1613.9 560.017 1613.9C531.492 1613.9 524.561 1636.18 524.561 1642.84C524.561 1649.49 528.161 1659.75 560.017 1659.75ZM611.561 1618.16C600.924 1618.99 602.549 1646.86 616.136 1645.33C629.724 1643.81 627.367 1616.91 611.561 1618.16Z" stroke="#006CA9" stroke-width="5" stroke-linecap="round" stroke-linejoin="round"/>
<path d="M666.161 1448.41C669.41 1445.16 667.216 1437.7 661.26 1431.75C655.305 1425.79 647.843 1423.6 644.595 1426.84C641.346 1430.09 643.54 1437.55 649.496 1443.51C655.451 1449.47 662.913 1451.66 666.161 1448.41Z" stroke="#006CA9" stroke-width="5" stroke-linecap="round" stroke-linejoin="round"/>
<path d="M619.405 1462.27C627.097 1449.98 635.508 1438.15 644.593 1426.84M630.393 1472.88C639.955 1462.27 666.162 1448.41 666.162 1448.41" stroke="#006CA9" stroke-width="5" stroke-linecap="round" stroke-linejoin="round"/>
<path d="M587.093 1443.79H587.255C591.091 1441.42 594.088 1437.91 595.824 1433.75C586.831 1433.72 577.939 1435.65 569.761 1439.39C576.736 1432.03 583.219 1424.21 589.168 1416C589.168 1416 550.349 1425.71 537.224 1442.46H537.324C483.48 1457.19 452.368 1522.08 452.368 1559.92C452.368 1602.81 530.868 1613.9 560.018 1613.9C589.168 1613.9 667.668 1602.81 667.668 1559.92C667.668 1523.11 638.236 1460.75 587.093 1443.79Z" stroke="#006CA9" stroke-width="5" stroke-linecap="round" stroke-linejoin="round"/>
<path d="M784.017 1565.74C763.536 1565.74 755.767 1556.87 752.161 1551.88M750.136 1525.63C750.049 1521.01 748.15 1516.6 744.848 1513.36C741.546 1510.12 737.104 1508.3 732.477 1508.3C727.85 1508.3 723.408 1510.12 720.106 1513.36C716.803 1516.6 714.904 1521.01 714.817 1525.63M732.474 1618.15C743.111 1618.99 741.486 1646.85 727.899 1645.33C714.311 1643.8 716.667 1616.9 732.474 1618.15Z" stroke="#FA8F00" stroke-width="5" stroke-linecap="round" stroke-linejoin="round"/>
<path d="M694.548 1443.51C700.503 1437.56 702.698 1430.1 699.449 1426.85C696.2 1423.6 688.739 1425.79 682.783 1431.75C676.828 1437.7 674.634 1445.16 677.882 1448.41C681.131 1451.66 688.592 1449.47 694.548 1443.51Z" stroke="#FA8F00" stroke-width="5" stroke-linecap="round" stroke-linejoin="round"/>
<path d="M724.63 1462.27C716.938 1449.98 708.527 1438.15 699.442 1426.84M713.642 1472.88C704.08 1462.27 677.88 1448.41 677.88 1448.41M784.017 1565.74C804.505 1565.74 812.267 1556.87 815.874 1551.88M817.899 1525.64C817.986 1521.01 819.884 1516.6 823.187 1513.36C826.489 1510.12 830.931 1508.31 835.558 1508.31C840.185 1508.31 844.627 1510.12 847.929 1513.36C851.232 1516.6 853.13 1521.01 853.217 1525.64M784.017 1659.75C815.874 1659.75 819.474 1649.49 819.474 1642.84C819.474 1636.19 812.542 1613.9 784.017 1613.9C755.492 1613.9 748.561 1636.18 748.561 1642.84C748.561 1649.49 752.161 1659.75 784.017 1659.75ZM835.561 1618.16C824.924 1618.99 826.549 1646.86 840.136 1645.33C853.724 1643.81 851.367 1616.91 835.561 1618.16Z" stroke="#FA8F00" stroke-width="5" stroke-linecap="round" stroke-linejoin="round"/>
<path d="M890.161 1448.41C893.41 1445.16 891.216 1437.7 885.26 1431.75C879.305 1425.79 871.843 1423.6 868.595 1426.84C865.346 1430.09 867.54 1437.55 873.496 1443.51C879.451 1449.47 886.913 1451.66 890.161 1448.41Z" stroke="#FA8F00" stroke-width="5" stroke-linecap="round" stroke-linejoin="round"/>
<path d="M843.405 1462.27C851.097 1449.98 859.508 1438.15 868.593 1426.84M854.393 1472.88C863.955 1462.27 890.162 1448.41 890.162 1448.41" stroke="#FA8F00" stroke-width="5" stroke-linecap="round" stroke-linejoin="round"/>
<path d="M811.093 1443.79H811.255C815.091 1441.42 818.088 1437.91 819.824 1433.75C810.831 1433.72 801.939 1435.65 793.761 1439.39C800.736 1432.03 807.219 1424.21 813.168 1416C813.168 1416 774.349 1425.71 761.224 1442.46H761.324C707.48 1457.19 676.368 1522.08 676.368 1559.92C676.368 1602.81 754.868 1613.9 784.018 1613.9C813.168 1613.9 891.668 1602.81 891.668 1559.92C891.668 1523.11 862.236 1460.75 811.093 1443.79Z" stroke="#FA8F00" stroke-width="5" stroke-linecap="round" stroke-linejoin="round"/>
<path d="M336.017 1565.74C315.536 1565.74 307.767 1556.87 304.161 1551.88M302.136 1525.63C302.049 1521.01 300.15 1516.6 296.848 1513.36C293.546 1510.12 289.104 1508.3 284.477 1508.3C279.85 1508.3 275.408 1510.12 272.106 1513.36C268.803 1516.6 266.904 1521.01 266.817 1525.63M284.474 1618.15C295.111 1618.99 293.486 1646.85 279.899 1645.33C266.311 1643.8 268.667 1616.9 284.474 1618.15Z" stroke="#FA8F00" stroke-width="5" stroke-linecap="round" stroke-linejoin="round"/>
<path d="M246.548 1443.51C252.503 1437.56 254.698 1430.1 251.449 1426.85C248.2 1423.6 240.739 1425.79 234.783 1431.75C228.828 1437.7 226.634 1445.16 229.882 1448.41C233.131 1451.66 240.592 1449.47 246.548 1443.51Z" stroke="#FA8F00" stroke-width="5" stroke-linecap="round" stroke-linejoin="round"/>
<path d="M276.63 1462.27C268.938 1449.98 260.527 1438.15 251.442 1426.84M265.642 1472.88C256.08 1462.27 229.88 1448.41 229.88 1448.41M336.017 1565.74C356.505 1565.74 364.267 1556.87 367.874 1551.88M369.899 1525.64C369.986 1521.01 371.884 1516.6 375.187 1513.36C378.489 1510.12 382.931 1508.31 387.558 1508.31C392.185 1508.31 396.627 1510.12 399.929 1513.36C403.232 1516.6 405.13 1521.01 405.217 1525.64M336.017 1659.75C367.874 1659.75 371.474 1649.49 371.474 1642.84C371.474 1636.19 364.542 1613.9 336.017 1613.9C307.492 1613.9 300.561 1636.18 300.561 1642.84C300.561 1649.49 304.161 1659.75 336.017 1659.75ZM387.561 1618.16C376.924 1618.99 378.549 1646.86 392.136 1645.33C405.724 1643.81 403.367 1616.91 387.561 1618.16Z" stroke="#FA8F00" stroke-width="5" stroke-linecap="round" stroke-linejoin="round"/>
<path d="M442.161 1448.41C445.41 1445.16 443.216 1437.7 437.26 1431.75C431.305 1425.79 423.843 1423.6 420.595 1426.84C417.346 1430.09 419.54 1437.55 425.496 1443.51C431.451 1449.47 438.913 1451.66 442.161 1448.41Z" stroke="#FA8F00" stroke-width="5" stroke-linecap="round" stroke-linejoin="round"/>
<path d="M395.405 1462.27C403.097 1449.98 411.508 1438.15 420.593 1426.84M406.393 1472.88C415.955 1462.27 442.162 1448.41 442.162 1448.41" stroke="#FA8F00" stroke-width="5" stroke-linecap="round" stroke-linejoin="round"/>
<path d="M363.093 1443.79H363.255C367.091 1441.42 370.088 1437.91 371.824 1433.75C362.831 1433.72 353.939 1435.65 345.761 1439.39C352.736 1432.03 359.219 1424.21 365.168 1416C365.168 1416 326.349 1425.71 313.224 1442.46H313.324C259.48 1457.19 228.368 1522.08 228.368 1559.92C228.368 1602.81 306.868 1613.9 336.018 1613.9C365.168 1613.9 443.668 1602.81 443.668 1559.92C443.668 1523.11 414.236 1460.75 363.093 1443.79Z" stroke="#FA8F00" stroke-width="5" stroke-linecap="round" stroke-linejoin="round"/>
<path d="M641.333 820H691.333V886.667H731.667L666.333 952L601 886.667H641.333V820Z" fill="#82D1F5"/>
</svg>
